<?xml version="1.0" encoding="utf-8"?>
<!-- Generator: Adobe Illustrator 19.2.0, SVG Export Plug-In . SVG Version: 6.00 Build 0)  -->
<svg version="1.1" id="Layer_1" xmlns="http://www.w3.org/2000/svg" xmlns:xlink="http://www.w3.org/1999/xlink" x="0px" y="0px"
	 viewBox="0 0 128 128" style="enable-background:new 0 0 128 128;" xml:space="preserve">
<style type="text/css">
	.st0{clip-path:url(#SVGID_2_);}
	.st1{fill:#FFFFFF;stroke:#DBDBDB;stroke-width:4;stroke-miterlimit:10;}
	.st2{fill:#FFDE00;}
	.st3{fill:#333333;}
	.st4{opacity:0.2;}
</style>
<g>
	<defs>
		<rect id="SVGID_1_" y="0" width="128" height="128"/>
	</defs>
	<clipPath id="SVGID_2_">
		<use xlink:href="#SVGID_1_"  style="overflow:visible;"/>
	</clipPath>
	<g class="st0">
		<path class="st1" d="M126,121.1V116c-2,0-4.5-2-4.5-4.5s2.5-4.5,4.5-4.5v-7c-2,0-4.5-2-4.5-4.5S124,91,126,91v-7
			c-2,0-4.5-2-4.5-4.5S124,75,126,75v-7c-2,0-4.5-2-4.5-4.5S124,59,126,59v-7c-2,0-4.5-2-4.5-4.5S124,43,126,43v-7
			c-2,0-4.5-2-4.5-4.5S124,27,126,27v-7c-2,0-4.5-2-4.5-4.5S124,11,126,11V5.9c-2-0.5-3-1.9-3-3.9h-6c0,2-2,4.5-4.5,4.5S108,4,108,2
			h-7c0,2-2,4.5-4.5,4.5S92,4,92,2h-7c0,2-2,4.5-4.5,4.5S76,4,76,2h-7c0,2-2,4.5-4.5,4.5C62,6.5,60,4,60,2h-7c0,2-2,4.5-4.5,4.5
			S44,4,44,2h-7c0,2-2,4.5-4.5,4.5S28,4,28,2h-7c0,2-2,4.5-4.5,4.5S12,4,12,2H6c0,2-1,3.4-4,3.9V11c3,0,4.5,2,4.5,4.5S5,20,2,20v7
			c3,0,4.5,2,4.5,4.5S5,36,2,36v7c3,0,4.5,2,4.5,4.5S5,52,2,52v7c3,0,4.5,2,4.5,4.5S5,68,2,68v7c3,0,4.5,2,4.5,4.5S5,84,2,84v7
			c3,0,4.5,2,4.5,4.5S5,100,2,100v7c3,0,4.5,2,4.5,4.5S5,116,2,116v5.1c3,0.5,4,1.9,4,4.9h6c0-3,2-4.5,4.5-4.5S21,123,21,126h7
			c0-3,2-4.5,4.5-4.5S37,123,37,126h7c0-3,2-4.5,4.5-4.5S53,123,53,126h7c0-3,2-4.5,4.5-4.5c2.5,0,4.5,1.5,4.5,4.5h7
			c0-3,2-4.5,4.5-4.5S85,123,85,126h7c0-3,2-4.5,4.5-4.5s4.5,1.5,4.5,4.5h7c0-3,2-4.5,4.5-4.5s4.5,1.5,4.5,4.5h6
			C123,123,124,121.5,126,121.1z"/>
		<rect x="20" y="20" class="st2" width="88" height="88"/>
		<g>
			<path class="st3" d="M49.6,43.5h-6.8v-6.8h24.1c15.1,0,18.2,9.9,18.2,16.8c0,5.5-2.2,9.8-4.6,12.1c-3.8,3.8-8.9,4.7-16.7,4.7
				h-6.1v14h7.1v6.8H42.7v-6.8h6.8V43.5H49.6z M64.6,63.8c10,0,12.2-4.7,12.2-10.3c0-6.4-3.6-9.9-9.6-9.9h-9.4v20.2
				C57.8,63.8,64.6,63.8,64.6,63.8z"/>
		</g>
		<g class="st4">
			<path class="st3" d="M32.7,45C27,50.5,16,54.2,3.3,54.2c-9.4,0-18-2.1-24.1-5.4c-7-3.8-16.7-9.2-29.4-9.2c-9.4,0-18,2.1-24.1,5.4
				v-2.6c6.1-3.3,14.6-5.4,24.1-5.4c12.7,0,22.4,5.3,29.4,9.2c6.1,3.3,14.6,5.4,24.1,5.4c12.7,0,23.7-3.7,29.4-9.2V45z"/>
			<path class="st3" d="M32.7,56C27,61.5,16,65.2,3.3,65.2c-9.4,0-18-2.1-24.1-5.4c-7-3.8-16.7-9.2-29.4-9.2c-9.4,0-18,2.1-24.1,5.4
				v-2.6c6.1-3.3,14.6-5.4,24.1-5.4c12.7,0,22.4,5.4,29.4,9.2c6.1,3.3,14.6,5.4,24.1,5.4c12.7,0,23.7-3.7,29.4-9.2V56z"/>
			<path class="st3" d="M32.7,67.1C27,72.6,16,76.3,3.3,76.3c-9.4,0-18-2.1-24.1-5.4c-7-3.8-16.7-9.2-29.4-9.2
				c-9.4,0-18,2.1-24.1,5.4v-2.6c6.1-3.3,14.6-5.4,24.1-5.4c12.7,0,22.4,5.3,29.4,9.2c6.1,3.3,14.6,5.4,24.1,5.4
				C16,73.7,27,70,32.7,64.5V67.1z"/>
			<path class="st3" d="M32.7,78.2C27,83.7,16,87.4,3.3,87.4c-9.4,0-18-2.1-24.1-5.4c-7-3.8-16.7-9.2-29.4-9.2
				c-9.4,0-18,2.1-24.1,5.4v-2.6c6.1-3.4,14.7-5.4,24.1-5.4c12.7,0,22.4,5.3,29.4,9.2c6.1,3.3,14.6,5.4,24.1,5.4
				c12.7,0,23.7-3.7,29.4-9.2V78.2z"/>
		</g>
	</g>
</g>
</svg>
