<svg width="22" height="22" viewBox="0 0 22 22" fill="none" xmlns="http://www.w3.org/2000/svg">
<mask id="maskPostmark" mask-type="alpha" maskUnits="userSpaceOnUse" x="5" y="3" width="12" height="15">
<path d="M6.95592 16.1845H5.15332V17.9872H11.0066V16.1845H9.11961V12.4732H10.7314C12.7885 12.4732 14.1458 12.2399 15.1426 11.2432C15.946 10.3731 16.3795 9.22475 16.3514 8.04088C16.3514 6.21698 15.5243 3.58728 11.5373 3.58728H5.15382V5.38998H6.95642L6.95592 16.1845ZM9.11913 10.7345V5.38998H11.6004C11.9497 5.35945 12.3014 5.40726 12.6299 5.5299C12.9584 5.65254 13.2554 5.84694 13.4992 6.09892C13.743 6.35089 13.9275 6.6541 14.0393 6.98644C14.1511 7.31878 14.1873 7.67187 14.1453 8.01997C14.1453 9.50447 13.5727 10.7345 10.9217 10.7345H9.11913Z" fill="#333333"/>
</mask>
<g mask="url(#maskPostmark)">
<rect y="1" width="22" height="21" fill="#242748"/>
</g>
</svg>
